Patient4_TMGait_0pt5_02_left_25_EMG.mot
version=1
nRows=13
nColumns=33
inDegrees=no
endheader
time	1LAddLong	2LGlutMax	3LGlutMed	4LIliopsoas	5LSemiMemb	6LBicFemLong	7LRecFem	8LVastMed	9LVastLat	10LGasMed	11LTibAnt	12lTibPost	13LPeroneusLong	14LSol	15LExtDigLong	16LFlexDigLong	17RAddLong	18RGlutMax	19RGlutMed	20RIliopsoas	21RSemiMemb	22RBicFemLong	23RRecFem	24RVastMed	25RVastLat	26RGasMed	27RTibAnt	28RTibPost	29RPeroneusLong	30RSol	31RExtDigLong	32RFlexDigLong
33.263	0.009918	0.11871	-0.064697	0.009766	0.004425	0.014343	0.095673	0.008087	0.13809	0.013275	-0.040894	0.016937	0.11795	-0.012817	-0.13351	0.015411	0.01236	-0.10559	-0.043182	-0.020142	-0.034027	0.085297	-0.10346	-0.002289	0.039673	0.007477	-0.061646	-0.046387	0.18051	0.12497	-0.002289	0.000305
33.264	0.010376	0.075684	-0.026703	0.000153	-0.002899	0.010986	0.089722	0.011139	0.13336	0.010071	-0.1294	0.000916	0.11108	0.00885	-0.11993	0.011444	0.007019	-0.13687	-0.15427	-0.000458	-0.02594	0.068817	-0.26489	-0.050812	0.020599	0.005798	-0.002899	-0.03418	-0.25146	0.13245	-0.00351	-0.00885
33.265	0.010223	0.089417	0.004578	0.004883	-0.002747	0.007782	0.070343	0.013123	0.12985	0.014496	-0.12329	0.006256	0.067291	0.001526	-0.072479	0.022278	0.005951	-0.12589	-0.087891	-0.018921	-0.02533	0.023193	-0.38101	-0.045166	0.056458	0.001373	-0.048676	-0.040588	-0.14267	-0.025177	-0.005798	-0.002594
33.266	0.01297	0.051422	-0.009155	-0.001678	0.019379	0.005493	0.076752	0.008545	0.14023	0.010681	-0.096741	0.00824	0.051727	0.029755	-0.035095	0.015259	0.011444	-0.024719	0.12192	-0.024109	-0.027161	0.004883	-0.20035	0.057831	0.16037	0.004272	0	-0.038452	0.3949	-0.10895	0.000458	0.002289
33.267	0.015717	0.091705	-0.05661	0.002594	0.042114	-0.003357	0.079498	0.00946	0.13184	-0.018158	-0.077515	0.005188	0.045776	0.074005	0.002594	0.027924	0.007172	-0.040283	0.048828	0.005493	-0.032959	0.019073	0.021362	0.037231	0.08728	0.003967	0.1033	-0.032654	0.69107	-0.13046	0.001221	-0.008087
33.268	0.011139	0.088043	-0.070648	-0.011139	0.023499	0.009155	0.067902	0.008545	0.1358	-0.059052	-0.036926	0.007019	0.070496	0.047913	0.038605	0.029602	0.010071	-0.032959	-0.10773	0.016632	-0.010986	-0.033875	0.045013	0.024872	-0.006409	0.001068	0.401	-0.031433	0.44968	-0.15671	-0.002899	-0.011749
33.269	0.010223	0.08728	-0.061951	0.001526	0.023499	0.007477	0.069733	0.00824	0.13412	-0.076294	0.078735	0.008087	0.066223	-0.084534	0.031586	0.016785	0.005646	0.015106	0.039215	0.008698	-0.010376	-0.026398	0.11337	-0.005188	-0.066376	-0.001221	0.78003	-0.02533	-0.09079	-0.13031	-0.002899	-0.009613
33.27	0.010529	0.078125	-0.045471	0.003967	0.002441	-0.001526	0.055237	0.012207	0.12848	-0.094757	0.12604	0.006866	0.11139	-0.16525	0.025635	0.010223	0.023804	0.05661	-0.008087	-0.016479	-0.011749	-0.013275	0.17838	0.016937	-0.050507	-0.006714	0.62958	-0.032349	-0.021667	-0.079041	-0.002441	-0.005188
33.271	0.005798	0.089874	-0.041809	0.000916	0.019073	0.005035	0.056152	0.024261	0.13031	-0.10239	0.06073	0.006866	0.13473	-0.21606	0.026093	0.012054	0.022888	0.063629	-0.092316	-0.016937	-0.000763	0.013428	0.17166	0.023041	-0.095978	-0.005493	-0.059357	-0.023804	-0.023651	-0.097656	-0.007629	-0.004425
33.272	0.007935	0.056	-0.000305	0.001678	-0.001678	0.008087	0.05127	0.011139	0.13702	-0.046234	0.034027	0.00885	0.079193	-0.2153	0.022278	-0.005035	0.014801	0.11108	0.057068	-0.036926	-0.016785	0.01297	-0.081482	-0.013733	-0.16663	-0.007935	-1.2492	-0.018463	0.12878	-0.11414	-0.000153	-0.009613
33.273	0.003357	0.074921	-0.021667	0.012207	-0.02594	0.000458	0.043945	0.015106	0.13702	-0.029755	0.034637	0.006866	0.078888	-0.1593	0.007019	0.001526	-0.001831	0.11368	0.1767	-0.058289	-0.10193	-0.02533	-0.086975	-0.085602	-0.14435	-0.006561	-1.376	-0.015411	0.11887	-0.17181	-0.001678	-0.006714
33.274	0.010223	0.099792	-0.053711	0.011749	-0.037537	-0.02243	0.046387	0.010681	0.1268	-0.018005	0.033264	-0.000763	0.075684	-0.046844	0.010376	0.010071	-0.00412	0.13123	0.068817	-0.010376	-0.16388	-0.033417	-0.103	0.02121	0.11231	-0.004883	-0.63141	-0.019379	0.061493	-0.16937	0.001221	-0.004272
33.275	0.01297	0.066986	-0.052643	0.019073	-0.053864	-0.055847	0.058899	0.016937	0.11414	-0.016479	0.036469	0.00946	0.12329	0.027008	0.01236	0.006561	-0.011597	0.18646	-0.040436	0.022736	-0.2005	-0.013885	-0.10239	-0.000153	0.091858	-0.006561	-0.34347	-0.013123	0.008087	-0.12421	0.008698	-0.00885
